<?xml version="1.0" standalone="no"?>
<!DOCTYPE svg PUBLIC "-//W3C//DTD SVG 1.1//EN" "http://www.w3.org/Graphics/SVG/1.1/DTD/svg11.dtd" >
<svg xmlns="http://www.w3.org/2000/svg">
<metadata>Generated by IcoMoon</metadata>
<defs>
<font id="icomoon" horiz-adv-x="1024">
<font-face units-per-em="1024" ascent="960" descent="-64" />
<missing-glyph horiz-adv-x="1024" />
<glyph unicode="&#x20;" horiz-adv-x="512" d="" />
<glyph unicode="&#xe600;" glyph-name="location" horiz-adv-x="640" d="M320 960c-177 0-320-143-320-320s160-416 320-704c160 288 320 527 320 704s-143 320-320 320zM320 512c-71 0-128 57-128 128s57 128 128 128 128-57 128-128-57-128-128-128z" />
<glyph unicode="&#xe601;" glyph-name="youtube" d="M731.429 438.857q0 21.143-17.143 30.857l-292.571 182.857q-17.714 11.429-37.143 1.143-18.857-10.286-18.857-32v-365.714q0-21.714 18.857-32 9.143-4.571 17.714-4.571 11.429 0 19.429 5.714l292.571 182.857q17.143 9.714 17.143 30.857zM1024 438.857q0-54.857-0.571-85.714t-4.857-78-12.857-84.286q-9.143-41.714-39.429-70.286t-70.857-33.143q-126.857-14.286-383.429-14.286t-383.429 14.286q-40.571 4.571-71.143 33.143t-39.714 70.286q-8 37.143-12.286 84.286t-4.857 78-0.571 85.714 0.571 85.714 4.857 78 12.857 84.286q9.143 41.714 39.429 70.286t70.857 33.143q126.857 14.286 383.429 14.286t383.429-14.286q40.571-4.571 71.143-33.143t39.714-70.286q8-37.143 12.286-84.286t4.857-78 0.571-85.714z" />
<glyph unicode="&#xe602;" glyph-name="menu" d="M128 170.667h768v85.333h-768v-85.333zM128 384h768v85.333h-768v-85.333zM128 682.667v-85.333h768v85.333h-768z" />
<glyph unicode="&#xe603;" glyph-name="social-facebook" d="M554.667 512h128v-128h-128v-298.667h-128v298.667h-128v128h128v53.547c0 50.731 15.957 114.816 47.701 149.845 31.744 35.115 71.381 52.608 118.869 52.608h89.429v-128h-89.6c-21.248 0-38.4-17.152-38.4-38.357v-89.643z" />
<glyph unicode="&#xe604;" glyph-name="social-twitter" d="M805.973 639.488c34.475 21.163 57.301 50.048 68.48 86.784-33.536-17.792-66.944-29.995-100.309-36.736-29.995 32.256-67.968 48.64-113.493 48.64-44.501 0-82.091-15.616-112.768-45.995-30.507-30.592-45.909-67.755-45.909-111.147 0-13.184 1.664-24.96 4.992-34.944-131.243 4.48-239.872 58.923-325.461 163.712-14.507-25.643-21.76-51.755-21.76-78.763 0-55.509 23.424-99.499 70.187-131.797-26.667 2.261-50.176 9.003-70.187 20.053 0-39.637 11.648-72.747 34.987-101.888 23.424-28.843 53.504-47.232 90.24-55.083-13.312-3.413-27.349-5.035-41.771-5.035-13.312 0-22.741 1.109-28.331 3.541 9.813-32.299 28.331-58.496 55.083-78.549 26.667-20.139 57.344-30.763 91.819-31.701-56.832-44.587-121.813-66.645-195.328-66.645-18.005 0-30.763 0.256-38.485 1.621 72.405-47.019 153.003-70.357 242.176-70.357 91.264 0 171.904 23.125 242.091 69.376 70.187 45.995 121.984 102.741 155.264 169.557 33.451 66.731 50.005 136.192 50.005 208.725v19.968c32.341 24.32 58.496 51.712 78.507 81.963-29.013-12.501-59.008-20.992-90.027-25.301z" />
<glyph unicode="&#xe605;" glyph-name="close" d="M810.667 768q18.333 0 30.5-12.167t12.167-30.5q0-18-12.333-30.333l-268.667-268.333 268.667-268.333q12.333-12.333 12.333-30.333 0-18.333-12.167-30.5t-30.5-12.167q-18 0-30.333 12.333l-268.333 268.667-268.333-268.667q-12.333-12.333-30.333-12.333-18.333 0-30.5 12.167t-12.167 30.5q0 18 12.333 30.333l268.667 268.333-268.667 268.333q-12.333 12.333-12.333 30.333 0 18.333 12.167 30.5t30.5 12.167q18 0 30.333-12.333l268.333-268.667 268.333 268.667q12.333 12.333 30.333 12.333z" />
<glyph unicode="&#xe606;" glyph-name="arrow-right" d="M389.171 285.798c-13.722-13.875-13.722-36.301 0-50.125 13.67-13.875 35.891-13.875 49.613 0l196.096 200.038c13.722 13.875 13.722 36.301 0 50.125l-196.096 200.090c-13.722 13.875-35.891 13.875-49.613 0s-13.722-36.25-0.051-50.074l160.819-175.053-160.768-175.002z" />
<glyph unicode="&#xe607;" glyph-name="arrow-left" d="M634.829 285.798c13.722-13.875 13.722-36.301 0-50.125-13.722-13.875-35.891-13.875-49.613 0l-196.096 200.038c-13.722 13.875-13.722 36.301 0 50.125l196.096 200.090c13.722 13.875 35.891 13.875 49.613 0s13.722-36.25 0-50.125l-160.768-175.002 160.768-175.002z" />
<glyph unicode="&#xe608;" glyph-name="arrow-down" d="M687.002 583.629c13.875 13.722 36.301 13.722 50.125 0 13.875-13.722 13.875-35.891 0-49.613l-200.038-196.096c-13.875-13.722-36.301-13.722-50.125 0l-200.090 196.096c-13.824 13.722-13.824 35.891 0 49.613 13.875 13.722 36.25 13.722 50.125 0l175.002-160.768 175.002 160.768z" />
<glyph unicode="&#xe609;" glyph-name="arrow-up" d="M336.947 337.971c-13.875-13.722-36.25-13.722-50.125 0-13.824 13.722-13.875 35.891 0 49.664l200.090 195.994c13.875 13.722 36.301 13.722 50.125 0l200.090-196.045c13.875-13.773 13.875-35.942 0-49.664s-36.25-13.722-50.125 0l-175.053 160.819-175.002-160.768z" />
<glyph unicode="&#xe60a;" glyph-name="phone" horiz-adv-x="805" d="M804.571 242.286q0-15.429-5.714-40.286t-12-39.143q-12-28.571-69.714-60.571-53.714-29.143-106.286-29.143-15.429 0-30 2t-32.857 7.143-27.143 8.286-31.714 11.714-28 10.286q-56 20-100 47.429-73.143 45.143-151.143 123.143t-123.143 151.143q-27.429 44-47.429 100-1.714 5.143-10.286 28t-11.714 31.714-8.286 27.143-7.143 32.857-2 30q0 52.571 29.143 106.286 32 57.714 60.571 69.714 14.286 6.286 39.143 12t40.286 5.714q8 0 12-1.714 10.286-3.429 30.286-43.429 6.286-10.857 17.143-30.857t20-36.286 17.714-30.571q1.714-2.286 10-14.286t12.286-20.286 4-16.286q0-11.429-16.286-28.571t-35.429-31.429-35.429-30.286-16.286-26.286q0-5.143 2.857-12.857t4.857-11.714 8-13.714 6.571-10.857q43.429-78.286 99.429-134.286t134.286-99.429q1.143-0.571 10.857-6.571t13.714-8 11.714-4.857 12.857-2.857q10.286 0 26.286 16.286t30.286 35.429 31.429 35.429 28.571 16.286q8 0 16.286-4t20.286-12.286 14.286-10q14.286-8.571 30.571-17.714t36.286-20 30.857-17.143q40-20 43.429-30.286 1.714-4 1.714-12z" />
<glyph unicode="&#xe612;" glyph-name="search" d="M1000.64 70.848l-184.896 184.896c50.688 72.576 80.64 160.704 80.64 255.936 0 247.424-200.64 448-448 448s-448-200.576-448-448c0-247.424 200.576-448 448-448 95.232 0 183.424 29.952 256 80.64l184.896-184.896c30.72-30.72 80.64-30.72 111.36 0s30.72 80.576 0 111.424zM448.32 191.616c-176.704 0-320 143.232-320 320s143.296 320 320 320c176.768 0 320-143.232 320-320 0.064-176.768-143.168-320-320-320z" />
<glyph unicode="&#xe61d;" glyph-name="envelope" d="M0 149.334c0-47.146 38.186-85.334 85.334-85.334h853.334c47.146 0 85.334 38.186 85.334 85.334l-0.002 576c0 47.146-38.186 85.334-85.334 85.334l-853.332-0.002c-47.146 0-85.334-38.186-85.334-85.334v-575.998zM314.026 436.694l-195.2 196.48c-16.192 16.214-16.192 42.454 0 58.666 16.234 16.214 42.474 16.214 58.666 0l311.468-311.872c12.586-12.374 33.302-12.374 45.674 0l311.872 311.872c16.214 16.214 42.454 16.214 58.666 0 16.214-16.214 16.214-42.454 0-58.666l-195.414-196.48 195.414-195.178c16.214-16.214 16.214-42.454 0-58.666s-42.454-16.214-58.666 0l-195.2 194.986c0 0-60.992-62.080-72.086-73.174-17.3-16.876-41.194-27.328-67.22-27.328-26.454 0-50.346 10.666-67.626 27.968-11.306 11.094-71.894 72.512-71.894 72.512l-195.008-194.986c-16.192-16.214-42.432-16.214-58.666 0-16.192 16.214-16.192 42.454 0 58.666l195.22 195.2z" />
<glyph unicode="&#xe900;" glyph-name="baseline-airplanemode_active-24px" horiz-adv-x="1092" d="M1011.127 527.324h-295.662l-274.028 432.677h-108.169l137.015-432.677h-295.662l-86.535 108.169h-79.324l57.69-187.493-57.69-187.493h79.324l79.324 108.169h295.662l-137.015-432.677h108.169l274.028 432.677h295.662c43.268 0 79.324 36.056 79.324 79.324s-28.845 79.324-72.113 79.324z" />
<glyph unicode="&#xe901;" glyph-name="baseline-chevron_right-24px" horiz-adv-x="1536" d="M1356.8 921.6l-588.8-588.8-588.8 588.8-179.2-179.2 768-768 768 768z" />
<glyph unicode="&#xe902;" glyph-name="baseline-local_phone-24px" d="M963.763 252.237c-67.765 0-135.529 15.059-203.294 30.117-22.588 7.529-45.177 0-60.235-15.059l-120.471-120.471c-158.118 82.823-293.647 210.823-368.941 368.941l120.471 128c15.059 15.059 22.588 37.647 15.059 60.235-22.588 60.235-30.117 128-30.117 195.764 0 30.117-22.588 60.235-60.235 60.235h-195.764c-30.117 0-60.235-30.117-60.235-60.235 0-527.058 436.706-963.765 963.765-963.765 30.117 0 60.235 22.588 60.235 60.235v195.764c0 30.117-30.117 60.235-60.235 60.235z" />
<glyph unicode="&#xe903;" glyph-name="baseline-local_post_office-24px" horiz-adv-x="1365" d="M1194.5 960h-1024c-68.267 0-128-59.733-128-128v-768c0-68.267 59.733-128 128-128h1024c68.267 0 128 59.733 128 128v768c0 68.267-59.733 128-128 128zM1194.5 704l-512-324.267-512 324.267v128l512-324.267 512 324.267v-128z" />
<glyph unicode="&#xe904;" glyph-name="baseline-place-24px" horiz-adv-x="717" d="M358.5 960c-199.68 0-358.4-158.72-358.4-358.4 0-266.24 358.4-665.6 358.4-665.6s358.4 399.36 358.4 665.6c0 199.68-158.72 358.4-358.4 358.4zM358.5 473.6c-71.68 0-128 56.32-128 128s56.32 128 128 128 128-56.32 128-128-56.32-128-128-128z" />
<glyph unicode="&#xe905;" glyph-name="check" horiz-adv-x="1229" d="M1227.776 755.2l-144.384 145.408-674.816-674.816-264.192 263.168-145.408-144.384 409.6-408.576z" />
<glyph unicode="&#xe906;" glyph-name="whatsapp1" horiz-adv-x="981" d="M21.333-21.333l68.267 243.2c-42.667 72.533-64 149.333-64 234.667 0 256 209.067 469.333 469.333 469.333 123.733 0 243.2-46.933 332.8-136.533 85.333-93.867 132.267-213.333 132.267-337.067 0-256-209.067-469.333-469.333-469.333v0 0c-76.8 0-153.6 21.333-221.867 55.467l-247.467-59.733zM281.6 128l12.8-8.533c59.733-34.133 128-55.467 196.267-55.467v0c213.333 0 388.267 174.933 388.267 388.267 0 102.4-38.4 200.533-115.2 273.067-72.533 72.533-170.667 115.2-273.067 115.2-209.067 0-384-174.933-384-388.267 0-72.533 21.333-145.067 59.733-204.8l8.533-12.8-38.4-145.067 145.067 38.4zM379.733 648.533c-12.8 17.067-21.333 21.333-29.867 21.333s-12.8 0-21.333 0-21.333-4.267-29.867-17.067c-12.8-12.8-42.667-38.4-42.667-98.133 0-55.467 42.667-110.933 46.933-119.467s81.067-128 200.533-174.933c98.133-38.4 119.467-29.867 140.8-29.867s68.267 29.867 76.8 55.467c8.533 25.6 8.533 51.2 8.533 55.467-4.267 4.267-12.8 8.533-21.333 12.8-12.8 4.267-68.267 34.133-81.067 38.4s-17.067 4.267-25.6-4.267c-8.533-12.8-29.867-38.4-38.4-46.933s-12.8-8.533-25.6-4.267c-12.8 4.267-51.2 17.067-93.867 59.733-34.133 29.867-59.733 68.267-64 81.067-8.533 12.8 0 17.067 4.267 25.6 8.533 12.8 25.6 34.133 29.867 38.4 4.267 8.533 0 12.8 0 21.333-4.267 4.267-25.6 59.733-34.133 85.333z" />
<glyph unicode="&#xe907;" glyph-name="baseline-schedule-24px" d="M512 960c-281.6 0-512-230.4-512-512s230.4-512 512-512c281.6 0 512 230.4 512 512s-230.4 512-512 512zM512 38.4c-225.28 0-409.6 184.32-409.6 409.6s184.32 409.6 409.6 409.6 409.6-184.32 409.6-409.6-184.32-409.6-409.6-409.6zM537.6 704h-76.8v-307.2l266.24-163.84 40.96 66.56-230.4 138.24z" />
<glyph unicode="&#xe908;" glyph-name="menu1" horiz-adv-x="1575" d="M1539.545 960h-1506.855c-18.097 0-32.768-14.671-32.768-32.768s14.671-32.768 32.768-32.768v0h1506.855c18.097 0 32.768 14.671 32.768 32.768s-14.671 32.768-32.768 32.768v0zM1539.545 501.406h-1506.855c-18.097 0-32.768-14.671-32.768-32.768s14.671-32.768 32.768-32.768h1506.855c18.097 0 32.768 14.671 32.768 32.768s-14.671 32.768-32.768 32.768v0zM1539.545 42.811h-1506.855c-18.097 0-32.768-14.671-32.768-32.768s14.671-32.768 32.768-32.768v0h1506.855c18.097 0 32.768 14.671 32.768 32.768s-14.671 32.768-32.768 32.768v0z" />
<glyph unicode="&#xe909;" glyph-name="cancel" d="M463.040 447.872l-453.248-456.448c-5.735-5.876-9.273-13.92-9.273-22.789 0-17.822 14.283-32.307 32.026-32.634h0.031c8.256 0 16.448 3.2 22.784 9.536l456.64 459.84 456.704-459.84c5.806-5.885 13.869-9.53 22.784-9.53s16.978 3.645 22.78 9.527l0.004 0.004c5.826 5.893 9.425 13.998 9.425 22.944s-3.599 17.051-9.428 22.947l0.003-0.003-453.248 456.448 453.504 456.704c5.845 5.896 9.457 14.014 9.457 22.976s-3.612 17.080-9.459 22.978l0.002-0.002c-5.813 5.869-13.874 9.503-22.784 9.503s-16.971-3.634-22.782-9.501l-0.002-0.002-456.96-460.16-456.96 460.096c-5.813 5.869-13.874 9.503-22.784 9.503s-16.971-3.634-22.782-9.501l-0.002-0.002c-5.845-5.896-9.457-14.014-9.457-22.976s3.612-17.080 9.459-22.978l-0.002 0.002 453.568-456.704z" />
<glyph unicode="&#xe90a;" glyph-name="baseline-store_mall_directory-24px-2" horiz-adv-x="1122" d="M1122.004 450.438l-63.417 314.65h-995.173l-63.417-317.089v-134.153h60.978v-365.872h634.179v365.872h219.524v-365.872h146.349v365.872h60.978v136.592zM1097.612 338.238h-60.978v-365.872h-97.566v365.872h-268.306v-365.872h-585.396v365.872h-60.978v107.322l58.539 295.138h956.146l58.539-292.698v-109.761zM1061.024 948.025h-1000.051v-146.349h1000.051v146.349zM1036.633 826.067h-951.268v97.566h951.268v-97.566zM182.931 69.931h390.264v268.306h-390.264v-268.306zM207.322 313.846h341.481v-219.524h-341.481v219.524z" />
<glyph unicode="&#xe90b;" glyph-name="baseline-store_mall_directory-24px-3" horiz-adv-x="1152" d="M64 960h1024v-128h-1024v128zM1088 768h-1024l-64-320v-128h64v-384h640v384h256v-384h128v384h64v128l-64 320zM576 64h-384v256h384v-256z" />
<glyph unicode="&#xe90c;" glyph-name="facebook-app-logo" d="M970.208 960.001h-912.602c-29.992 0-55.699-25.707-55.699-55.699v-912.602c0-29.992 25.707-55.699 55.699-55.699h488.435v398.46h-132.82v154.243h132.82v111.397c0 132.82 81.406 205.657 197.088 205.657 55.699 0 107.113-4.285 119.967-4.285v-141.389h-81.406c-64.268 0-77.121-29.992-77.121-77.121v-94.26h154.243l-21.422-154.243h-132.82v-398.46h261.356c29.992 0 55.699 25.707 55.699 55.699v912.602c4.285 29.992-21.422 55.699-51.414 55.699z" />
<glyph unicode="&#xe90d;" glyph-name="flecha-2" horiz-adv-x="1536" d="M1356.8 921.6l-588.8-588.8-588.8 588.8-179.2-179.2 768-768 768 768z" />
<glyph unicode="&#xe90e;" glyph-name="Group-4-2" d="M512 960c-280.253 0-512-231.747-512-512s231.747-512 512-512 512 231.747 512 512-231.747 512-512 512zM512-10.105c-253.305 0-458.105 204.8-458.105 458.105s204.8 458.105 458.105 458.105c253.305 0 458.105-204.8 458.105-458.105s-204.8-458.105-458.105-458.105zM544.337 706.695h-53.895v-231.747h-204.8v-53.895h204.8v-199.411h53.895v199.411h226.358v53.895h-226.358z" />
<glyph unicode="&#xe90f;" glyph-name="Group-4" horiz-adv-x="1152" d="M159.998 47.998h341.334v234.668h-341.334v-234.668zM181.332 261.332h298.668v-192.001h-298.668v192.001zM1152.002 698.667c0 140.801-115.2 256.001-256.001 256.001-98.133 0-185.601-55.467-228.268-138.668h-614.402v-128h586.669c0-10.667 2.133-21.333 4.267-32h-588.802l-55.467-277.334v-117.333h53.333v-320.001h554.669v320.001h192.001v-320.001h128v320.001h53.333v119.467l-14.933 72.533c106.667 29.867 185.601 128 185.601 245.334zM640 709.334h-565.335v85.333h584.535c-10.667-25.6-17.067-55.467-19.2-85.333zM960.001 282.665h-53.333v-320.001h-85.333v320.001h-234.668v-320.001h-512.002v320.001h-53.333v93.867l51.2 258.134h576.002c27.733-110.933 128-192.001 247.468-192.001 17.067 0 34.133 2.133 51.2 4.267l12.8-68.267v-96zM964.268 658.134c-27.733-55.467-81.067-93.867-147.201-108.8l-8.533-2.133-4.267 8.533c-23.467 59.733-23.467 119.467 4.267 172.801 27.733 55.467 81.067 93.867 147.201 108.8l8.533 2.133 4.267-8.533c25.6-59.733 23.467-119.467-4.267-172.801zM827.734 717.867c-21.333-40.533-25.6-85.333-12.8-130.133l61.867 130.133 19.2-8.533-64-132.267c49.067 17.067 89.6 49.067 110.933 91.733 23.467 44.8 25.6 96 6.4 147.201-53.333-17.067-96-51.2-121.6-98.133z" />
<glyph unicode="&#xe910;" glyph-name="Group-6" d="M38.537-8.946h946.925v-55.054h-946.925v55.054zM886.365 475.527l-44.043 38.537-286.279-297.29v743.226h-55.054v-726.71l-275.269 324.817-44.043-33.032 346.839-407.398z" />
<glyph unicode="&#xe911;" glyph-name="Group-11" horiz-adv-x="847" d="M598.744 955.473h-507.474c-51.112 0-91.272-40.159-91.272-91.272v-832.403c0-51.112 40.159-91.272 91.272-91.272h664.461c51.112 0 91.272 40.159 91.272 91.272v664.461l-248.26 259.213zM609.697 893.407l175.243-186.196h-156.988c-10.953 0-18.254 7.302-18.254 18.254v167.941zM752.081-22.965h-660.811c-29.207 0-54.764 25.556-54.764 54.764v832.403c0 29.207 25.556 54.764 54.764 54.764h481.918v-197.148c0-29.207 25.556-54.764 54.764-54.764h178.894v-635.255c0-29.207-25.556-54.764-54.764-54.764zM237.306 393.235h-73.018v-208.101h47.461v76.669h25.556c25.556 0 43.81 7.302 58.415 18.254s21.905 25.556 21.905 47.461v0c0 21.905-7.302 40.159-21.905 51.112-10.953 7.302-32.858 14.603-58.415 14.603zM273.815 323.869c0-21.905-10.953-32.858-36.509-32.858h-25.556v65.716h25.556c21.905 0 36.509-10.953 36.509-32.858v0zM419.85 393.235h-69.367v-208.101h69.367c36.509 0 65.716 10.953 83.971 29.207s29.207 43.81 29.207 76.669v3.651c0 32.858-10.953 58.415-29.207 76.669-18.254 10.953-47.461 21.905-83.971 21.905zM481.916 287.359c0-43.81-21.905-65.716-62.066-65.716h-18.254v135.083h18.254c21.905 0 36.509-7.302 47.461-18.254s14.603-25.556 14.603-51.112v0zM569.538 185.136h47.461v80.32h69.367v36.509h-69.367v54.764h87.622v36.509h-135.083z" />
<glyph unicode="&#xe912;" glyph-name="outline-clear-24px" d="M1024 857.6l-102.4 102.4-409.6-409.6-409.6 409.6-102.4-102.4 409.6-409.6-409.6-409.6 102.4-102.4 409.6 409.6 409.6-409.6 102.4 102.4-409.6 409.6z" />
<glyph unicode="&#xe913;" glyph-name="outline-create-24px" d="M1008.793 812.99l-131.802 131.802c-10.138 10.138-25.347 15.208-40.555 15.208s-30.416-5.069-40.555-15.208l-106.455-106.455 212.911-212.911 106.455 106.455c20.277 20.277 20.277 55.762 0 81.109zM0.001 148.911v-212.911h212.911l628.594 628.594-212.911 212.911-628.594-628.594zM167.288 47.525h-50.693v50.693l512 522.139 50.693-50.693-512-522.139z" />
<glyph unicode="&#xe914;" glyph-name="outline-delete_sweep-24px" horiz-adv-x="808" d="M598.504 897.074l-62.927 62.927h-263.151l-62.927-62.927h-188.783v-131.576h766.57v131.576zM83.643 61.855c0-68.648 57.207-125.854 125.854-125.854h389.006c68.648 0 125.854 57.207 125.854 125.854v640.716h-640.716v-640.716zM209.497 576.716h389.006v-514.861h-389.006v514.861z" />
<glyph unicode="&#xe915;" glyph-name="Path-6" horiz-adv-x="663" d="M545.754 962.892l40.497-46.282-474.395-468.61 474.395-468.61-40.497-40.497-514.892 509.108z" />
<glyph unicode="&#xe916;" glyph-name="Path-13" horiz-adv-x="1280" d="M1219.2 960.001l-748.8-934.4-422.4 332.8-38.4-51.2 467.2-371.2 793.6 985.6z" />
<glyph unicode="&#xe917;" glyph-name="Path-26-2" horiz-adv-x="553" d="M36.884 954.88l-28.672-28.672 479.232-477.184-479.232-479.232 28.672-28.672 507.904 507.904z" />
<glyph unicode="&#xe918;" glyph-name="Path-26" horiz-adv-x="585" d="M72.702 960l-72.404-72.404 439.596-439.596-439.596-439.596 72.404-72.404 512 512z" />
<glyph unicode="&#xe919;" glyph-name="Path26" horiz-adv-x="585" d="M512.298 960l72.404-72.404-439.596-439.596 439.596-439.596-72.404-72.404-512 512z" />
</font>
</defs>
</svg>
